# xmcd
#
# Track frame offsets:
#	150
#	14962
#	27587
#	40283
#	52287
#	72172
#	86806
#	95401
#	110937
#	132350
#	147062
#	160479
#
# Disc length: 2322 seconds
#
# Revision: 1
# Processed by: cddbd v1.5.2PL0 Copyright (c) Steve Scherf et al.
# Submitted via: audiograbber 1.83.01
#
DISCID=bb09100c
DTITLE=Mr. Irish Bastard - Never mind the Bastards - Here is Mr. Irish Bollocks
DYEAR=2011
DGENRE=Punk
TTITLE0=Holidays in the sun
TTITLE1=Bodies
TTITLE2=No feelings
TTITLE3=Liar
TTITLE4=Problems
TTITLE5=God save the queen
TTITLE6=Seventeen
TTITLE7=Anarchy in the UK
TTITLE8=Submission
TTITLE9=Pretty vacant
TTITLE10=New York
TTITLE11=Emi
EXTD=
EXTT0=
EXTT1=
EXTT2=
EXTT3=
EXTT4=
EXTT5=
EXTT6=
EXTT7=
EXTT8=
EXTT9=
EXTT10=
EXTT11=
PLAYORDER=
